<?xml version="1.0" encoding="UTF-8" standalone="no"?>
<!-- Uploaded to: SVG Repo, www.svgrepo.com, Generator: SVG Repo Mixer Tools -->

<svg
   width="100px"
   height="100px"
   viewBox="0 0 512 512"
   version="1.1"
   id="svg44"
   sodipodi:docname="favicon.svg"
   inkscape:version="1.2.2 (b0a8486541, 2022-12-01)"
   xmlns:inkscape="http://www.inkscape.org/namespaces/inkscape"
   xmlns:sodipodi="http://sodipodi.sourceforge.net/DTD/sodipodi-0.dtd"
   xmlns="http://www.w3.org/2000/svg"
   xmlns:svg="http://www.w3.org/2000/svg">
  <defs
     id="defs48" />
  <sodipodi:namedview
     id="namedview46"
     pagecolor="#ffffff"
     bordercolor="#000000"
     borderopacity="0.25"
     inkscape:showpageshadow="2"
     inkscape:pageopacity="0.0"
     inkscape:pagecheckerboard="0"
     inkscape:deskcolor="#d1d1d1"
     showgrid="false"
     inkscape:zoom="7.85"
     inkscape:cx="49.936306"
     inkscape:cy="50.254777"
     inkscape:window-width="1854"
     inkscape:window-height="1011"
     inkscape:window-x="0"
     inkscape:window-y="0"
     inkscape:window-maximized="1"
     inkscape:current-layer="svg44" />
  <path
     fill="#000000"
     d="M477.518 181.966a25 25 0 0 1-34.91 23l-62.29 150.26h-248.92l-62.24-150.19a25 25 0 1 1 9.73-7.29l87 71.2 20.92-126.4a25 25 0 1 1 14.7-1.85l54.31 117 54.42-117.3a25 25 0 1 1 14.58 2.08l20.93 126.42 87.26-71.3a25 25 0 1 1 44.51-15.63zm-71.66 241.25h-300v60h300v-60zm-27.75-52h-244.22v36h244.22v-36z"
     id="path42"
     style="fill:#ececec" />
  <path
     style="fill:#ececec;stroke-width:0.127389"
     d="m 25.629482,69.140127 c -0.06158,-0.122611 -2.80086,-6.718638 -6.087285,-14.657837 l -5.975318,-14.434907 -0.44586,0.103697 c -0.245223,0.05703 -0.990446,0.102377 -1.656051,0.100766 -1.080746,-0.0026 -1.289599,-0.04282 -1.9525819,-0.37584 -0.9765554,-0.490531 -2.0133501,-1.610958 -2.3861319,-2.578607 -0.3922116,-1.018084 -0.3922116,-2.493911 0,-3.511995 0.3758344,-0.975573 1.4112952,-2.091294 2.3861319,-2.571086 0.8809049,-0.43356 2.3106119,-0.572869 3.3414139,-0.325583 2.57691,0.618191 4.151921,3.490838 3.341539,6.0946 -0.130781,0.420197 -0.36008,0.935747 -0.509554,1.145664 -0.149475,0.209918 -0.268903,0.430144 -0.265396,0.489392 0.0074,0.124912 16.932661,13.976134 16.996949,13.909884 0.045,-0.04638 3.972572,-23.725061 4.040372,-24.358747 0.03534,-0.33033 -0.01255,-0.381007 -0.497705,-0.526606 -2.33062,-0.699443 -3.828918,-3.155802 -3.34718,-5.487474 0.54002,-2.613763 2.987654,-4.323577 5.532016,-3.864434 3.914377,0.706371 5.367116,5.453131 2.504562,8.183546 -0.396808,0.378491 -0.848567,0.728504 -1.003907,0.777807 -0.155342,0.0493 -0.282439,0.151873 -0.282439,0.227933 0,0.151215 10.417784,22.653168 10.557112,22.802897 0.06247,0.06713 10.235085,-21.632062 10.658863,-22.73641 0.03535,-0.09211 -0.135503,-0.268169 -0.396799,-0.408886 -0.252379,-0.135916 -0.736531,-0.550922 -1.07589,-0.922235 -2.279633,-2.494281 -1.257154,-6.566619 1.946014,-7.750612 0.856602,-0.316627 2.33693,-0.326986 3.215159,-0.0225 1.433822,0.497115 2.686948,1.886069 3.069874,3.402621 0.249926,0.989817 0.18028,1.939815 -0.220928,3.013559 -0.38395,1.027556 -1.544535,2.190715 -2.5671,2.572794 -0.405494,0.151512 -0.8211,0.275476 -0.923567,0.275476 -0.102468,0 -0.188511,0.07166 -0.191208,0.159236 -0.0096,0.310636 4.000259,24.491987 4.076631,24.584243 0.04271,0.05159 0.763466,-0.467713 1.601688,-1.154002 0.83822,-0.686289 4.662572,-3.813008 8.498559,-6.948264 3.835987,-3.135256 6.974522,-5.726967 6.974522,-5.759358 0,-0.03239 -0.13848,-0.278258 -0.307732,-0.546372 -1.621009,-2.567843 -0.304943,-6.121967 2.627596,-7.096 1.022706,-0.339688 2.626684,-0.208163 3.614931,0.296423 0.994945,0.508005 1.979283,1.572833 2.354771,2.547322 0.390341,1.013039 0.389579,2.491221 -0.0018,3.507165 -0.374512,0.972141 -1.446557,2.131601 -2.405213,2.601337 -0.66195,0.324351 -0.836778,0.352909 -2.060889,0.336641 -0.735669,-0.0098 -1.498837,-0.03807 -1.695927,-0.06288 L 86.353376,40.127385 80.29277,54.745219 74.232162,69.363053 H 49.9868 c -22.963232,0 -24.251273,-0.01178 -24.357318,-0.22293 z"
     id="path346"
     transform="scale(5.12)" />
  <path
     style="fill:#ececec;stroke-width:0.127389"
     d="m 26.242038,75.987261 v -3.43949 H 50 73.757962 v 3.43949 3.439491 H 50 26.242038 Z"
     id="path348"
     transform="scale(5.12)" />
  <path
     style="fill:#ececec;stroke-width:0.127389"
     d="M 20.764331,88.535032 V 82.738854 H 50 79.235669 v 5.796178 5.796178 H 50 20.764331 Z"
     id="path350"
     transform="scale(5.12)" />
  <path
     style="fill:#ffcc00;stroke-width:0.127389"
     d="m 25.684972,69.261852 c -0.0344,-0.05566 -1.535902,-3.652797 -3.336668,-7.99363 -3.084886,-7.436274 -3.8861,-9.370125 -6.067158,-14.644018 -0.492581,-1.191083 -1.122525,-2.710191 -1.399876,-3.375796 -0.277351,-0.665605 -0.682902,-1.658835 -0.901223,-2.207176 l -0.396948,-0.996986 -0.45397,0.105266 c -0.249683,0.0579 -0.998556,0.103775 -1.664161,0.101954 -1.058144,-0.0029 -1.301067,-0.04753 -1.9334998,-0.355229 -0.9542297,-0.46427 -2.0282026,-1.623065 -2.4086071,-2.598838 -0.397802,-1.0204 -0.397802,-2.491595 0,-3.511995 0.3803264,-0.975573 1.4183037,-2.092801 2.389525,-2.57197 0.9506239,-0.469005 2.4387199,-0.585087 3.5096029,-0.273773 2.520846,0.732829 3.968295,3.48951 3.17335,6.043674 -0.130781,0.420197 -0.363705,0.940837 -0.51761,1.156977 -0.153905,0.21614 -0.246142,0.447485 -0.204971,0.514101 0.07473,0.120922 1.249497,1.091173 9.181284,7.582935 2.314501,1.894299 4.488047,3.67348 4.830104,3.953735 2.151993,1.763176 2.933965,2.362481 2.962181,2.270223 0.0176,-0.05754 0.780088,-4.633281 1.694423,-10.168312 0.914335,-5.535032 1.804165,-10.921188 1.977399,-11.969233 0.375599,-2.272326 0.382815,-2.474108 0.09204,-2.573773 -1.079768,-0.3701 -1.758629,-0.785964 -2.381814,-1.459078 -0.923227,-0.997195 -1.259395,-1.870069 -1.269873,-3.297279 -0.007,-0.959936 0.03778,-1.179661 0.39504,-1.936397 0.704195,-1.491592 1.995571,-2.479477 3.636489,-2.781867 2.07678,-0.38271 4.42598,0.937296 5.22307,2.934824 0.213971,0.536215 0.280289,0.96969 0.282596,1.847134 0.0027,1.023519 -0.03944,1.235314 -0.392807,1.974522 -0.422103,0.883001 -1.362951,1.919265 -1.971346,2.17127 -0.202668,0.08395 -0.368489,0.202826 -0.368489,0.264172 0,0.06135 0.551129,1.301207 1.22473,2.755246 0.673602,1.45404 1.383677,2.987656 1.577944,3.408038 0.765325,1.656117 3.817959,8.224339 5.506051,11.847134 0.979414,2.101911 1.869635,4.036624 1.978268,4.299363 0.108633,0.262739 0.232639,0.477707 0.27557,0.477707 0.09233,0 0.495733,-0.851923 6.273455,-13.248408 l 4.423283,-9.490445 -0.343026,-0.253389 c -0.188664,-0.139364 -0.664668,-0.573321 -1.057786,-0.96435 -1.869403,-1.859472 -1.793182,-4.986388 0.166235,-6.819581 1.729594,-1.618175 4.480517,-1.725119 6.287501,-0.244432 2.210071,1.810987 2.433861,4.994202 0.496703,7.06518 -0.61856,0.66129 -1.909307,1.407654 -2.43437,1.407654 -0.226691,0 -0.296142,0.06868 -0.289853,0.286625 0.02176,0.754058 4.023619,24.34821 4.136116,24.385708 0.07098,0.02366 0.50033,-0.262181 0.954114,-0.6352 0.453786,-0.373021 4.149906,-3.390278 8.2136,-6.705017 4.063695,-3.314739 7.496432,-6.129028 7.628306,-6.253976 0.234641,-0.222318 0.234271,-0.234918 -0.01727,-0.588965 -1.098613,-1.546278 -1.031242,-3.889627 0.158281,-5.50548 1.021448,-1.387537 2.332232,-1.991473 4.123734,-1.899984 0.912607,0.0466 1.23305,0.12384 1.876144,0.452195 1.915795,0.978178 2.971312,3.07239 2.596552,5.151721 -0.268345,1.488896 -1.289091,2.835896 -2.657686,3.507143 -0.811029,0.397782 -2.441687,0.541279 -3.40228,0.299399 -0.325349,-0.08192 -0.615597,-0.124899 -0.644996,-0.0955 -0.05505,0.05505 -0.877564,2.011911 -3.034387,7.219167 -0.681974,1.646497 -2.144116,5.171974 -3.249208,7.834395 -1.105093,2.66242 -2.882845,6.947452 -3.950559,9.522293 L 74.23692,69.363058 H 49.992219 c -13.334585,0 -24.272846,-0.04554 -24.307247,-0.101205 z"
     id="path240"
     transform="scale(5.12)" />
  <path
     style="fill:#ffcc00;stroke-width:0.127389"
     d="m 26.242038,75.987261 v -3.43949 H 50 73.757962 v 3.43949 3.439491 H 50 26.242038 Z"
     id="path242"
     transform="scale(5.12)" />
  <path
     style="fill:#ffcc00;stroke-width:0.127389"
     d="M 20.764331,88.535032 V 82.738854 H 50 79.235669 v 5.796178 5.796178 H 50 20.764331 Z"
     id="path244"
     transform="scale(5.12)" />
</svg>
