<?xml version="1.0" encoding="UTF-8" standalone="no"?>
<!-- Uploaded to: SVG Repo, www.svgrepo.com, Generator: SVG Repo Mixer Tools -->

<svg
   width="100px"
   height="100px"
   viewBox="0 0 512 512"
   version="1.1"
   id="svg44"
   sodipodi:docname="favicon.svg"
   inkscape:version="1.2.2 (b0a8486541, 2022-12-01)"
   xmlns:inkscape="http://www.inkscape.org/namespaces/inkscape"
   xmlns:sodipodi="http://sodipodi.sourceforge.net/DTD/sodipodi-0.dtd"
   xmlns="http://www.w3.org/2000/svg"
   xmlns:svg="http://www.w3.org/2000/svg">
  <defs
     id="defs48" />
  <sodipodi:namedview
     id="namedview46"
     pagecolor="#ffffff"
     bordercolor="#000000"
     borderopacity="0.25"
     inkscape:showpageshadow="2"
     inkscape:pageopacity="0.0"
     inkscape:pagecheckerboard="0"
     inkscape:deskcolor="#d1d1d1"
     showgrid="false"
     inkscape:zoom="7.85"
     inkscape:cx="49.936306"
     inkscape:cy="50.127389"
     inkscape:window-width="1854"
     inkscape:window-height="1011"
     inkscape:window-x="0"
     inkscape:window-y="0"
     inkscape:window-maximized="1"
     inkscape:current-layer="svg44" />
  <path
     fill="#000000"
     d="M477.518 181.966a25 25 0 0 1-34.91 23l-62.29 150.26h-248.92l-62.24-150.19a25 25 0 1 1 9.73-7.29l87 71.2 20.92-126.4a25 25 0 1 1 14.7-1.85l54.31 117 54.42-117.3a25 25 0 1 1 14.58 2.08l20.93 126.42 87.26-71.3a25 25 0 1 1 44.51-15.63zm-71.66 241.25h-300v60h300v-60zm-27.75-52h-244.22v36h244.22v-36z"
     id="path42"
     style="fill:#ececec" />
  <path
     style="fill:#ececec;stroke-width:0.127389"
     d="m 25.629482,69.140127 c -0.06158,-0.122611 -2.80086,-6.718638 -6.087285,-14.657837 l -5.975318,-14.434907 -0.44586,0.103697 c -0.245223,0.05703 -0.990446,0.102377 -1.656051,0.100766 -1.080746,-0.0026 -1.289599,-0.04282 -1.9525819,-0.37584 -0.9765554,-0.490531 -2.0133501,-1.610958 -2.3861319,-2.578607 -0.3922116,-1.018084 -0.3922116,-2.493911 0,-3.511995 0.3758344,-0.975573 1.4112952,-2.091294 2.3861319,-2.571086 0.8809049,-0.43356 2.3106119,-0.572869 3.3414139,-0.325583 2.57691,0.618191 4.151921,3.490838 3.341539,6.0946 -0.130781,0.420197 -0.36008,0.935747 -0.509554,1.145664 -0.149475,0.209918 -0.268903,0.430144 -0.265396,0.489392 0.0074,0.124912 16.932661,13.976134 16.996949,13.909884 0.045,-0.04638 3.972572,-23.725061 4.040372,-24.358747 0.03534,-0.33033 -0.01255,-0.381007 -0.497705,-0.526606 -2.33062,-0.699443 -3.828918,-3.155802 -3.34718,-5.487474 0.54002,-2.613763 2.987654,-4.323577 5.532016,-3.864434 3.914377,0.706371 5.367116,5.453131 2.504562,8.183546 -0.396808,0.378491 -0.848567,0.728504 -1.003907,0.777807 -0.155342,0.0493 -0.282439,0.151873 -0.282439,0.227933 0,0.151215 10.417784,22.653168 10.557112,22.802897 0.06247,0.06713 10.235085,-21.632062 10.658863,-22.73641 0.03535,-0.09211 -0.135503,-0.268169 -0.396799,-0.408886 -0.252379,-0.135916 -0.736531,-0.550922 -1.07589,-0.922235 -2.279633,-2.494281 -1.257154,-6.566619 1.946014,-7.750612 0.856602,-0.316627 2.33693,-0.326986 3.215159,-0.0225 1.433822,0.497115 2.686948,1.886069 3.069874,3.402621 0.249926,0.989817 0.18028,1.939815 -0.220928,3.013559 -0.38395,1.027556 -1.544535,2.190715 -2.5671,2.572794 -0.405494,0.151512 -0.8211,0.275476 -0.923567,0.275476 -0.102468,0 -0.188511,0.07166 -0.191208,0.159236 -0.0096,0.310636 4.000259,24.491987 4.076631,24.584243 0.04271,0.05159 0.763466,-0.467713 1.601688,-1.154002 0.83822,-0.686289 4.662572,-3.813008 8.498559,-6.948264 3.835987,-3.135256 6.974522,-5.726967 6.974522,-5.759358 0,-0.03239 -0.13848,-0.278258 -0.307732,-0.546372 -1.621009,-2.567843 -0.304943,-6.121967 2.627596,-7.096 1.022706,-0.339688 2.626684,-0.208163 3.614931,0.296423 0.994945,0.508005 1.979283,1.572833 2.354771,2.547322 0.390341,1.013039 0.389579,2.491221 -0.0018,3.507165 -0.374512,0.972141 -1.446557,2.131601 -2.405213,2.601337 -0.66195,0.324351 -0.836778,0.352909 -2.060889,0.336641 -0.735669,-0.0098 -1.498837,-0.03807 -1.695927,-0.06288 L 86.353376,40.127385 80.29277,54.745219 74.232162,69.363053 H 49.9868 c -22.963232,0 -24.251273,-0.01178 -24.357318,-0.22293 z"
     id="path346"
     transform="scale(5.12)" />
  <path
     style="fill:#ececec;stroke-width:0.127389"
     d="m 26.242038,75.987261 v -3.43949 H 50 73.757962 v 3.43949 3.439491 H 50 26.242038 Z"
     id="path348"
     transform="scale(5.12)" />
  <path
     style="fill:#ececec;stroke-width:0.127389"
     d="M 20.764331,88.535032 V 82.738854 H 50 79.235669 v 5.796178 5.796178 H 50 20.764331 Z"
     id="path350"
     transform="scale(5.12)" />
</svg>
